#define 3a8fd8e97cf3483180070a81d515ffbbZsVjgdDNjngYbe3g_width 128
#define 3a8fd8e97cf3483180070a81d515ffbbZsVjgdDNjngYbe3g_height 128
static char 3a8fd8e97cf3483180070a81d515ffbbZsVjgdDNjngYbe3g_bits[] = {
  0x00, 0x00, 0x00, 0x00, 0x00, 0x00, 0x00, 0x00, 0x00, 0x00, 0x00, 0x00, 
  0x00, 0x00, 0x00, 0x00, 0x00, 0x00, 0x00, 0x0D, 0x00, 0xB4, 0x00, 0xC0, 
  0x06, 0x00, 0x16, 0x00, 0xA0, 0x01, 0x00, 0x00, 0x00, 0x00, 0x40, 0x24, 
  0x00, 0x62, 0x00, 0xE0, 0x0A, 0x00, 0x47, 0x00, 0x68, 0x03, 0x00, 0x00, 
  0x00, 0x00, 0x00, 0x0A, 0x00, 0x18, 0x02, 0x00, 0x01, 0x00, 0x90, 0x00, 
  0x40, 0x00, 0x00, 0x00, 0x00, 0x00, 0x00, 0x00, 0x00, 0x00, 0x00, 0x00, 
  0x00, 0x00, 0x00, 0x00, 0x00, 0x00, 0x00, 0x00, 0x00, 0x00, 0x00, 0x00, 
  0x00, 0x00, 0x00, 0x00, 0x00, 0x00, 0x00, 0x00, 0x00, 0x00, 0x00, 0x00, 
  0x00, 0x00, 0x00, 0x00, 0x00, 0x00, 0x00, 0x00, 0x00, 0x00, 0x00, 0x00, 
  0x00, 0x00, 0x00, 0x00, 0x00, 0x00, 0x00, 0x00, 0x00, 0x00, 0x00, 0x00, 
  0x00, 0x00, 0x00, 0x00, 0x00, 0x00, 0x00, 0x00, 0x00, 0x00, 0x26, 0x80, 
  0xAE, 0x01, 0x6C, 0x07, 0xF0, 0x5A, 0x00, 0x67, 0x02, 0xD8, 0x00, 0x00, 
  0x00, 0x80, 0x01, 0x00, 0x00, 0x00, 0x00, 0x00, 0x00, 0x00, 0x00, 0x00, 
  0x00, 0x00, 0x01, 0x00, 0x00, 0x30, 0x00, 0x00, 0x00, 0x00, 0x00, 0x00, 
  0x00, 0x00, 0x00, 0x00, 0x00, 0x00, 0x04, 0x00, 0x00, 0x00, 0x00, 0x00, 
  0x00, 0x00, 0x00, 0x00, 0x00, 0x00, 0x00, 0x00, 0x00, 0x00, 0x08, 0x00, 
  0x00, 0x08, 0x00, 0x00, 0x00, 0x00, 0x00, 0x00, 0x00, 0x00, 0x00, 0x00, 
  0x04, 0x00, 0x20, 0x00, 0x00, 0x04, 0x00, 0x04, 0x00, 0x00, 0x08, 0x00, 
  0x10, 0x00, 0x00, 0x00, 0x40, 0x04, 0x20, 0x00, 0x00, 0x02, 0x40, 0x10, 
  0x00, 0x60, 0x00, 0x40, 0x00, 0x00, 0x94, 0x00, 0x00, 0x00, 0x00, 0x00, 
  0x00, 0x00, 0x40, 0x4A, 0x00, 0x22, 0x02, 0x80, 0x03, 0x00, 0x12, 0x00, 
  0x60, 0x04, 0x40, 0x00, 0x00, 0x00, 0x00, 0x57, 0x00, 0x22, 0x02, 0x50, 
  0x0A, 0x00, 0x9A, 0x00, 0x94, 0x05, 0x00, 0x00, 0x00, 0x01, 0x40, 0x59, 
  0x00, 0xF8, 0x02, 0xD0, 0x16, 0x80, 0xA5, 0x00, 0xE4, 0x04, 0x80, 0x00, 
  0x00, 0x01, 0x60, 0xFB, 0x00, 0xDD, 0x07, 0x98, 0x3F, 0x80, 0xDF, 0x01, 
  0xF8, 0x0F, 0x80, 0x00, 0x00, 0x00, 0xE0, 0xFF, 0x00, 0xFF, 0x07, 0xF8, 
  0x37, 0xC0, 0xFE, 0x01, 0xFE, 0x0F, 0x00, 0x00, 0x00, 0x01, 0xE0, 0xFF, 
  0x81, 0xFF, 0x0E, 0xF8, 0x7F, 0xE0, 0xFF, 0x03, 0xFF, 0x1F, 0x80, 0x00, 
  0x00, 0x00, 0xF0, 0xDF, 0x00, 0xFF, 0x07, 0xFC, 0x7F, 0xE0, 0xFF, 0x03, 
  0xFF, 0x0D, 0x00, 0x00, 0x80, 0x00, 0xE0, 0xFF, 0x00, 0xFF, 0x0F, 0xF8, 
  0x3F, 0xC0, 0xFE, 0x01, 0xF7, 0x0F, 0x80, 0x00, 0x00, 0x00, 0xE0, 0xFF, 
  0x00, 0xFF, 0x07, 0xF8, 0x3F, 0xC0, 0xFF, 0x01, 0xFE, 0x0F, 0x00, 0x00, 
  0x00, 0x01, 0xC0, 0x7F, 0x00, 0xFE, 0x03, 0xF0, 0x1F, 0x80, 0xFF, 0x00, 
  0xFC, 0x07, 0x00, 0x00, 0x00, 0x00, 0x00, 0x3F, 0x00, 0xFC, 0x01, 0xE0, 
  0x0F, 0x00, 0x7F, 0x00, 0xF0, 0x01, 0x80, 0x01, 0x00, 0x00, 0x00, 0x05, 
  0x00, 0x10, 0x00, 0x00, 0x01, 0x00, 0x04, 0x00, 0xC0, 0x00, 0x00, 0x00, 
  0x80, 0x00, 0x00, 0x00, 0x00, 0x00, 0x00, 0x00, 0x00, 0x00, 0x00, 0x00, 
  0x00, 0x00, 0x80, 0x00, 0x00, 0x01, 0x00, 0x00, 0x00, 0x00, 0x00, 0x00, 
  0x00, 0x00, 0x00, 0x00, 0x00, 0x00, 0x00, 0x00, 0x00, 0x00, 0x00, 0x00, 
  0x00, 0x00, 0x00, 0x00, 0x00, 0x00, 0x00, 0x00, 0x00, 0x00, 0x00, 0x00, 
  0x00, 0x00, 0x00, 0x00, 0x00, 0x00, 0x00, 0x00, 0x00, 0x00, 0x00, 0x00, 
  0x00, 0x00, 0x80, 0x00, 0x80, 0x00, 0x00, 0x00, 0x00, 0x00, 0x00, 0x00, 
  0x00, 0x00, 0x00, 0x00, 0x00, 0x00, 0x00, 0x01, 0x00, 0x01, 0x00, 0x00, 
  0x00, 0x00, 0x00, 0x00, 0x00, 0x00, 0x00, 0x00, 0x00, 0x00, 0x00, 0x00, 
  0x00, 0x00, 0x00, 0x00, 0x00, 0x00, 0x00, 0x00, 0x00, 0x00, 0x00, 0x00, 
  0x00, 0x00, 0x00, 0x01, 0x00, 0x00, 0x00, 0x00, 0x00, 0x00, 0x04, 0x00, 
  0x00, 0x00, 0x00, 0x80, 0x00, 0x40, 0x00, 0x00, 0x40, 0x11, 0x00, 0x00, 
  0x00, 0x00, 0x00, 0x00, 0x00, 0x00, 0x00, 0x00, 0x04, 0x08, 0x80, 0x00, 
  0x80, 0x00, 0x00, 0x00, 0x04, 0x00, 0x01, 0x00, 0x00, 0x00, 0x00, 0x00, 
  0x00, 0x00, 0x00, 0x00, 0x00, 0x02, 0x00, 0x40, 0x00, 0x00, 0x00, 0x00, 
  0x00, 0x00, 0x00, 0x00, 0x00, 0x02, 0x04, 0x00, 0x00, 0x01, 0xC0, 0x08, 
  0x40, 0x18, 0x00, 0x44, 0x02, 0x10, 0xA2, 0x02, 0x00, 0x00, 0x80, 0x00, 
  0x00, 0x28, 0x2E, 0xDE, 0xB5, 0xCE, 0xF2, 0xA9, 0xFC, 0xCB, 0x57, 0xAB, 
  0xAC, 0x8A, 0x75, 0x01, 0x00, 0x51, 0x0C, 0x26, 0x12, 0xA0, 0x14, 0x01, 
  0x97, 0xF0, 0x05, 0x12, 0x45, 0x49, 0x62, 0x00, 0x80, 0x00, 0x80, 0x00, 
  0x00, 0x00, 0x00, 0x40, 0x00, 0x00, 0x40, 0x00, 0x00, 0x00, 0x80, 0x01, 
  0x00, 0x01, 0x00, 0x00, 0x00, 0x0A, 0x00, 0x08, 0x00, 0x00, 0x00, 0x00, 
  0x00, 0x00, 0x00, 0x00, 0x80, 0x00, 0x00, 0x00, 0x00, 0x00, 0x00, 0x00, 
  0x00, 0x00, 0x00, 0x00, 0x00, 0x00, 0x00, 0x00, 0x00, 0x00, 0x00, 0x00, 
  0x00, 0x00, 0x00, 0x00, 0x00, 0x00, 0x00, 0x00, 0x00, 0x00, 0x00, 0x00, 
  0x00, 0x00, 0x00, 0x00, 0x00, 0x00, 0x00, 0x00, 0x00, 0x00, 0x00, 0x00, 
  0x00, 0x00, 0x00, 0x00, 0x00, 0x00, 0x00, 0x00, 0x00, 0x00, 0x00, 0x00, 
  0x00, 0x00, 0x00, 0x00, 0x00, 0x00, 0x80, 0x00, 0x80, 0x00, 0x00, 0x00, 
  0x00, 0x00, 0x00, 0x00, 0x00, 0x00, 0x00, 0x00, 0x00, 0x00, 0x00, 0x01, 
  0x00, 0x00, 0x00, 0x00, 0x00, 0x00, 0x00, 0x00, 0x00, 0x00, 0x00, 0x00, 
  0x00, 0x00, 0x00, 0x00, 0x00, 0x00, 0x00, 0x00, 0x00, 0x00, 0x00, 0x00, 
  0x00, 0x00, 0x00, 0x00, 0x00, 0x00, 0x00, 0x01, 0x00, 0x01, 0x00, 0x00, 
  0x00, 0x00, 0x00, 0x00, 0x00, 0x00, 0x00, 0x00, 0x00, 0x00, 0x80, 0x00, 
  0x80, 0x00, 0x00, 0x00, 0x00, 0x00, 0x00, 0x00, 0x00, 0x00, 0x00, 0x00, 
  0x00, 0x00, 0x00, 0x00, 0x00, 0x00, 0x00, 0x00, 0x00, 0x00, 0x00, 0x00, 
  0x00, 0x00, 0x00, 0x00, 0x00, 0x00, 0x80, 0x00, 0x00, 0xA5, 0x8A, 0xA6, 
  0x8A, 0xA6, 0x8A, 0xA6, 0xA8, 0x8A, 0xA6, 0xA8, 0x68, 0x68, 0xA8, 0x00, 
  0x00, 0x1A, 0x65, 0x19, 0x65, 0x19, 0x65, 0x19, 0x55, 0x65, 0x19, 0x55, 
  0x96, 0x16, 0x55, 0x00, 0x80, 0x01, 0x00, 0x00, 0x00, 0x00, 0x00, 0x00, 
  0x00, 0x00, 0x00, 0x00, 0x00, 0x00, 0x80, 0x01, 0x00, 0x01, 0x00, 0x00, 
  0x00, 0x00, 0x00, 0x00, 0x00, 0x00, 0x00, 0x00, 0x00, 0x00, 0x00, 0x00, 
  0x80, 0x00, 0x00, 0x00, 0x00, 0x00, 0x00, 0x00, 0x00, 0x00, 0x00, 0x00, 
  0x00, 0x00, 0x80, 0x01, 0x00, 0x00, 0x00, 0x00, 0x00, 0x00, 0x00, 0x00, 
  0x00, 0x00, 0x00, 0x00, 0x00, 0x00, 0x80, 0x00, 0x00, 0x01, 0x00, 0x00, 
  0x00, 0x00, 0x00, 0x00, 0x00, 0x00, 0x00, 0x00, 0x00, 0x00, 0x00, 0x00, 
  0x80, 0x00, 0x00, 0x00, 0x00, 0x00, 0x00, 0x00, 0x00, 0x00, 0x00, 0x00, 
  0x00, 0x00, 0x80, 0x00, 0x00, 0x01, 0x00, 0x00, 0x00, 0x00, 0x00, 0x00, 
  0x00, 0x00, 0x00, 0x00, 0x00, 0x00, 0x00, 0x00, 0x00, 0x01, 0x00, 0x00, 
  0x00, 0x00, 0x00, 0x00, 0x00, 0x00, 0x00, 0x00, 0x00, 0x00, 0x80, 0x00, 
  0x00, 0x00, 0x00, 0x00, 0x00, 0x00, 0x00, 0x00, 0x00, 0x00, 0x00, 0x00, 
  0x00, 0x00, 0x80, 0x01, 0x80, 0x00, 0x00, 0x00, 0x00, 0x00, 0x00, 0x00, 
  0x00, 0x00, 0x00, 0x00, 0x00, 0x00, 0x80, 0x00, 0x00, 0x01, 0x00, 0x00, 
  0x00, 0x00, 0x00, 0x00, 0x00, 0x00, 0x00, 0x00, 0x00, 0x00, 0x80, 0x00, 
  0x40, 0x01, 0x00, 0x00, 0x00, 0x00, 0x00, 0x00, 0x00, 0x00, 0x00, 0x00, 
  0x00, 0x00, 0x00, 0x00, 0x00, 0xD5, 0xB5, 0xD6, 0xAD, 0xB5, 0xAB, 0xAD, 
  0x63, 0xD5, 0xBA, 0xB6, 0xAA, 0xBA, 0xD6, 0x01, 0x00, 0x5B, 0x55, 0x5D, 
  0xB6, 0x75, 0xBA, 0xB6, 0xD6, 0x6D, 0xA7, 0x6D, 0xBA, 0xA7, 0xAD, 0x00, 
  0x00, 0x20, 0x00, 0x00, 0x00, 0x00, 0x00, 0x00, 0x00, 0x00, 0x00, 0x00, 
  0x00, 0x00, 0x80, 0x00, 0x80, 0x01, 0x00, 0x00, 0x00, 0x00, 0x00, 0x00, 
  0x00, 0x00, 0x00, 0x00, 0x00, 0x00, 0x80, 0x00, 0x00, 0x00, 0x00, 0x20, 
  0x00, 0x00, 0x00, 0x00, 0x00, 0x00, 0x40, 0x00, 0x00, 0x40, 0x80, 0x01, 
  0x00, 0x00, 0x00, 0x00, 0x00, 0x04, 0x00, 0x20, 0x00, 0x00, 0x00, 0x00, 
  0x00, 0x00, 0x00, 0x00, 0x00, 0x01, 0x00, 0x00, 0x10, 0x00, 0x40, 0x00, 
  0x00, 0x00, 0x00, 0x08, 0x10, 0x00, 0x80, 0x01, 0x00, 0x01, 0x08, 0x00, 
  0x00, 0x00, 0x00, 0x00, 0x00, 0x10, 0x00, 0x00, 0x00, 0x00, 0x81, 0x00, 
  0x80, 0x01, 0x00, 0x01, 0x00, 0x00, 0x00, 0x00, 0x20, 0x00, 0x02, 0x00, 
  0x01, 0x00, 0x80, 0x00, 0x00, 0x00, 0x02, 0x00, 0x00, 0x00, 0x00, 0x00, 
  0x00, 0x00, 0x00, 0x00, 0x00, 0x00, 0x80, 0x00, 0x00, 0x01, 0x80, 0x00, 
  0x00, 0x00, 0x00, 0x00, 0x04, 0x00, 0x00, 0x10, 0x10, 0x00, 0x80, 0x00, 
  0x00, 0x21, 0x00, 0x00, 0x82, 0x00, 0x20, 0x02, 0x00, 0x00, 0x00, 0x00, 
  0x00, 0x21, 0x80, 0x00, 0x80, 0x01, 0x00, 0x08, 0x00, 0x82, 0x00, 0x00, 
  0x10, 0x04, 0x10, 0x04, 0x00, 0x00, 0x80, 0x01, 0x00, 0x01, 0x00, 0x00, 
  0x00, 0x00, 0x00, 0x00, 0x00, 0x00, 0x00, 0x00, 0x00, 0x00, 0x81, 0x00, 
  0x80, 0xD7, 0x75, 0x7D, 0x5D, 0xAF, 0xAB, 0xEB, 0xD7, 0xAB, 0xD7, 0xAB, 
  0x5B, 0xD6, 0xDD, 0x00, 0x00, 0xAA, 0xEB, 0xDA, 0xBA, 0xE6, 0xBD, 0xD7, 
  0xAE, 0xBD, 0xAE, 0xBD, 0xDE, 0x5F, 0xBA, 0x00, 0x00, 0x01, 0x00, 0x00, 
  0x00, 0x00, 0x00, 0x00, 0x00, 0x00, 0x00, 0x00, 0x00, 0x40, 0x80, 0x01, 
  0x80, 0x09, 0x00, 0x00, 0x80, 0x00, 0x20, 0x00, 0x04, 0x10, 0x04, 0x10, 
  0x00, 0x00, 0x80, 0x00, 0x00, 0x41, 0x88, 0x00, 0x20, 0x04, 0x00, 0x04, 
  0x00, 0x00, 0x00, 0x00, 0x40, 0x00, 0x80, 0x00, 0x00, 0x01, 0x08, 0x04, 
  0x00, 0x00, 0x01, 0x00, 0x80, 0x01, 0x80, 0x01, 0x02, 0x00, 0x84, 0x00, 
  0x00, 0x01, 0x00, 0x10, 0x01, 0x80, 0x00, 0x80, 0x00, 0x00, 0x00, 0x00, 
  0x80, 0x40, 0x90, 0x01, 0x00, 0x80, 0x00, 0x00, 0x01, 0x04, 0x20, 0x80, 
  0x00, 0x01, 0x80, 0x00, 0x20, 0x00, 0x80, 0x00, 0x80, 0x01, 0x04, 0x04, 
  0x80, 0x01, 0x80, 0x01, 0x02, 0x40, 0x02, 0x40, 0x00, 0x04, 0x84, 0x01, 
  0x00, 0x01, 0x44, 0x10, 0x00, 0x80, 0x01, 0x00, 0x02, 0x40, 0x02, 0x40, 
  0x14, 0x48, 0x90, 0x00, 0x80, 0x01, 0x00, 0x40, 0x10, 0x00, 0x00, 0x08, 
  0x20, 0x04, 0x20, 0x04, 0x00, 0x00, 0x80, 0x00, 0x00, 0x11, 0x00, 0x00, 
  0x08, 0x44, 0x02, 0x00, 0x20, 0x00, 0x20, 0x00, 0x00, 0x00, 0x80, 0x00, 
  0x00, 0x01, 0x00, 0x02, 0x00, 0x00, 0x20, 0x08, 0x00, 0x00, 0x00, 0x00, 
  0x01, 0x00, 0x82, 0x00, 0x00, 0x01, 0x00, 0x00, 0x00, 0x00, 0x00, 0x00, 
  0x00, 0x00, 0x00, 0x00, 0x80, 0x00, 0x80, 0x00, 0x00, 0xF7, 0xFD, 0xDE, 
  0xBD, 0xDB, 0xB6, 0x7D, 0xB7, 0x7F, 0xB7, 0x7F, 0xB6, 0xFD, 0xDE, 0x01, 
  0x00, 0x6D, 0xBB, 0xED, 0x6D, 0xBB, 0xED, 0xDB, 0xED, 0xFE, 0xED, 0xFE, 
  0xBF, 0xF7, 0xBB, 0x00, 0x00, 0x81, 0x00, 0x00, 0x81, 0x00, 0x00, 0x00, 
  0x00, 0x00, 0x00, 0x00, 0x00, 0x00, 0x80, 0x01, 0x00, 0x00, 0x01, 0x04, 
  0x00, 0x01, 0x04, 0x41, 0x04, 0x00, 0x04, 0x00, 0x00, 0x04, 0x80, 0x00, 
  0x80, 0x01, 0x10, 0x00, 0x08, 0x10, 0x00, 0x00, 0x00, 0x00, 0x00, 0x00, 
  0x00, 0x00, 0xC0, 0x00, 0x00, 0x01, 0x00, 0x40, 0x00, 0x00, 0x40, 0x04, 
  0x88, 0x40, 0x88, 0x40, 0x10, 0x00, 0x81, 0x00, 0x00, 0x01, 0x20, 0x04, 
  0x00, 0xA0, 0x02, 0x20, 0x00, 0x02, 0x00, 0x02, 0x08, 0x02, 0xC0, 0x00, 
  0x00, 0x03, 0x84, 0x10, 0x11, 0x04, 0x10, 0x04, 0x01, 0x00, 0x01, 0x00, 
  0x00, 0x00, 0xC0, 0x00, 0x80, 0x03, 0x00, 0x00, 0x00, 0x00, 0x00, 0x00, 
  0x10, 0x04, 0x10, 0x04, 0x82, 0x20, 0xC0, 0x01, 0x80, 0x03, 0x00, 0x02, 
  0x00, 0x00, 0x00, 0x00, 0x00, 0x00, 0x00, 0x00, 0x00, 0x00, 0xC0, 0x00, 
  0x00, 0x0F, 0x00, 0x00, 0x00, 0x00, 0x01, 0x00, 0x00, 0x00, 0x00, 0x00, 
  0x00, 0x00, 0x70, 0x01, 0x00, 0x0B, 0x00, 0x00, 0x00, 0x00, 0x00, 0x00, 
  0x00, 0x00, 0x00, 0x00, 0x00, 0x00, 0xF4, 0x00, 0x80, 0x1B, 0x00, 0x00, 
  0x00, 0x00, 0x00, 0x00, 0x00, 0x00, 0x00, 0x00, 0x00, 0x00, 0xD0, 0x00, 
  0x00, 0x59, 0x00, 0x00, 0x00, 0x00, 0x00, 0x00, 0x00, 0x00, 0x00, 0x00, 
  0x00, 0x00, 0xF4, 0x00, 0x00, 0x2F, 0x00, 0x00, 0x00, 0x00, 0x00, 0x00, 
  0x00, 0x00, 0x00, 0x00, 0x00, 0x80, 0x6A, 0x00, 0x00, 0xA3, 0x99, 0x24, 
  0x45, 0x92, 0xEE, 0xA4, 0xBE, 0xEA, 0x2E, 0x46, 0x28, 0x32, 0xE6, 0x00, 
  0x00, 0x5F, 0x24, 0x52, 0x6A, 0x5D, 0x59, 0xFF, 0xAF, 0x9F, 0xD9, 0x2B, 
  0x46, 0x48, 0xF9, 0x00, 0x00, 0x1B, 0x00, 0x00, 0x00, 0x00, 0x00, 0x00, 
  0x00, 0x00, 0x00, 0x00, 0x00, 0x00, 0xDC, 0x00, 0x00, 0xFF, 0x01, 0x00, 
  0x00, 0x00, 0x00, 0x00, 0x00, 0x00, 0x00, 0x00, 0x00, 0x40, 0xDA, 0x00, 
  0x00, 0x66, 0x85, 0x25, 0x29, 0x79, 0xEE, 0xEA, 0xBA, 0xBA, 0xE7, 0x63, 
  0x68, 0x55, 0xF7, 0x00, 0x00, 0x9E, 0x5A, 0xDA, 0xEE, 0xE7, 0xB6, 0x7F, 
  0xFF, 0xBF, 0x9E, 0xDC, 0x96, 0xA9, 0x78, 0x00, 0x00, 0x7E, 0x81, 0x00, 
  0x00, 0x00, 0x00, 0x00, 0x00, 0x00, 0x00, 0x00, 0x40, 0x20, 0x7E, 0x00, 
  0x00, 0x7C, 0x25, 0x04, 0x00, 0x00, 0x00, 0x00, 0x00, 0x00, 0x00, 0x00, 
  0x00, 0x88, 0x3D, 0x00, 0x00, 0xF8, 0xAB, 0x24, 0x49, 0xA8, 0x92, 0x10, 
  0x88, 0x04, 0x49, 0xAA, 0x96, 0xF2, 0x1F, 0x00, 0x00, 0xF0, 0xFF, 0xFF, 
  0xFF, 0xFF, 0xFF, 0xFF, 0xFF, 0xFF, 0xFF, 0xFF, 0xFF, 0xFF, 0x0F, 0x00, 
  0x00, 0x80, 0xFF, 0xFF, 0xFF, 0xFF, 0xFF, 0xFF, 0xFF, 0xFF, 0xFF, 0xFF, 
  0xFF, 0xFF, 0x01, 0x00, 0x00, 0x00, 0x7D, 0xF7, 0x7D, 0x7D, 0xF7, 0x7D, 
  0x7D, 0xF7, 0x7D, 0x7D, 0xF7, 0x3D, 0x00, 0x00, 0x00, 0x00, 0x20, 0x0A, 
  0xA2, 0x25, 0x0A, 0xA2, 0x25, 0x0A, 0xA2, 0x25, 0x0A, 0x82, 0x00, 0x00, 
  0x00, 0x00, 0x00, 0x40, 0x00, 0x00, 0x40, 0x00, 0x00, 0x40, 0x00, 0x00, 
  0x40, 0x00, 0x00, 0x00, 0x00, 0x00, 0x00, 0x00, 0x00, 0x00, 0x00, 0x00, 
  0x00, 0x00, 0x00, 0x00, 0x00, 0x00, 0x00, 0x00, 0x00, 0x00, 0x00, 0x00, 
  0x00, 0x00, 0x00, 0x00, 0x00, 0x00, 0x00, 0x00, 0x00, 0x00, 0x00, 0x00, 
  0x00, 0x00, 0x00, 0x00, 0x00, 0x00, 0x00, 0x00, 0x00, 0x00, 0x00, 0x00, 
  0x00, 0x00, 0x00, 0x00, 0x00, 0x00, 0x00, 0x00, 0x00, 0x00, 0x00, 0x00, 
  0x00, 0x00, 0x00, 0x00, 0x00, 0x00, 0x00, 0x00, };
